name Walk1.mot
datacolumns 19
datarows 22
range 3.57400000 3.59500000
endheader

                time	   L_ground_force_vx	   L_ground_force_vy	   L_ground_force_vz	   L_ground_force_px	   L_ground_force_py	   L_ground_force_pz	   R_ground_force_vx	   R_ground_force_vy	   R_ground_force_vz	   R_ground_force_px	   R_ground_force_py	   R_ground_force_pz	   L_ground_torque_x	   L_ground_torque_y	   L_ground_torque_z	   R_ground_torque_x	   R_ground_torque_y	   R_ground_torque_z	
          3.57400000	         46.39966924	        651.31825358	         38.31803487	         -0.26846261	          0.00000000	         -0.04949577	          0.00000000	          0.00000000	          0.00000000	          0.00000000	          0.00000000	          0.00000000	          0.00000000	          0.28423585	          0.00000000	          0.00000000	          0.00000000	          0.00000000	
          3.57500000	         46.84186971	        652.78963214	         38.40639248	         -0.26810650	          0.00000000	         -0.04936833	          0.00000000	          0.00000000	          0.00000000	          0.00000000	          0.00000000	          0.00000000	          0.00000000	          0.27165555	          0.00000000	          0.00000000	          0.00000000	          0.00000000	
          3.57600000	         47.29233870	        654.39549263	         38.52900815	         -0.26777053	          0.00000000	         -0.04926013	          0.00000000	          0.00000000	          0.00000000	          0.00000000	          0.00000000	          0.00000000	          0.00000000	          0.26571297	          0.00000000	          0.00000000	          0.00000000	          0.00000000	
          3.57700000	         47.72810672	        656.08848486	         38.67528061	         -0.26744452	          0.00000000	         -0.04922679	          0.00000000	          0.00000000	          0.00000000	          0.00000000	          0.00000000	          0.00000000	          0.00000000	          0.27395865	          0.00000000	          0.00000000	          0.00000000	          0.00000000	
          3.57800000	         48.12711853	        657.80153321	         38.82895352	         -0.26711431	          0.00000000	         -0.04928846	          0.00000000	          0.00000000	          0.00000000	          0.00000000	          0.00000000	          0.00000000	          0.00000000	          0.29440082	          0.00000000	          0.00000000	          0.00000000	          0.00000000	
          3.57900000	         48.48308805	        659.48806716	         38.97245683	         -0.26676599	          0.00000000	         -0.04942486	          0.00000000	          0.00000000	          0.00000000	          0.00000000	          0.00000000	          0.00000000	          0.00000000	          0.31630369	          0.00000000	          0.00000000	          0.00000000	          0.00000000	
          3.58000000	         48.81365805	        661.11594672	         39.09364703	         -0.26639138	          0.00000000	         -0.04959788	          0.00000000	          0.00000000	          0.00000000	          0.00000000	          0.00000000	          0.00000000	          0.00000000	          0.33028001	          0.00000000	          0.00000000	          0.00000000	          0.00000000	
          3.58100000	         49.14638606	        662.67089549	         39.18803175	         -0.26599268	          0.00000000	         -0.04977343	          0.00000000	          0.00000000	          0.00000000	          0.00000000	          0.00000000	          0.00000000	          0.00000000	          0.33443503	          0.00000000	          0.00000000	          0.00000000	          0.00000000	
          3.58200000	         49.49972194	        664.17306330	         39.26111531	         -0.26558017	          0.00000000	         -0.04993099	          0.00000000	          0.00000000	          0.00000000	          0.00000000	          0.00000000	          0.00000000	          0.00000000	          0.33230042	          0.00000000	          0.00000000	          0.00000000	          0.00000000	
          3.58300000	         49.87619516	        665.66245353	         39.32741380	         -0.26516451	          0.00000000	         -0.05006905	          0.00000000	          0.00000000	          0.00000000	          0.00000000	          0.00000000	          0.00000000	          0.00000000	          0.32828089	          0.00000000	          0.00000000	          0.00000000	          0.00000000	
          3.58400000	         50.26697232	        667.17447538	         39.39987389	         -0.26475557	          0.00000000	         -0.05020047	          0.00000000	          0.00000000	          0.00000000	          0.00000000	          0.00000000	          0.00000000	          0.00000000	          0.32546621	          0.00000000	          0.00000000	          0.00000000	          0.00000000	
          3.58500000	         50.66240326	        668.73994324	         39.48780279	         -0.26436179	          0.00000000	         -0.05033714	          0.00000000	          0.00000000	          0.00000000	          0.00000000	          0.00000000	          0.00000000	          0.00000000	          0.32807352	          0.00000000	          0.00000000	          0.00000000	          0.00000000	
          3.58600000	         51.05875633	        670.37452264	         39.60345135	         -0.26397759	          0.00000000	         -0.05048147	          0.00000000	          0.00000000	          0.00000000	          0.00000000	          0.00000000	          0.00000000	          0.00000000	          0.34332474	          0.00000000	          0.00000000	          0.00000000	          0.00000000	
          3.58700000	         51.45409044	        672.04962978	         39.75349960	         -0.26358032	          0.00000000	         -0.05062575	          0.00000000	          0.00000000	          0.00000000	          0.00000000	          0.00000000	          0.00000000	          0.00000000	          0.37497830	          0.00000000	          0.00000000	          0.00000000	          0.00000000	
          3.58800000	         51.83972637	        673.69512960	         39.92838743	         -0.26315196	          0.00000000	         -0.05075399	          0.00000000	          0.00000000	          0.00000000	          0.00000000	          0.00000000	          0.00000000	          0.00000000	          0.41625652	          0.00000000	          0.00000000	          0.00000000	          0.00000000	
          3.58900000	         52.20518572	        675.24822201	         40.11033344	         -0.26270167	          0.00000000	         -0.05085542	          0.00000000	          0.00000000	          0.00000000	          0.00000000	          0.00000000	          0.00000000	          0.00000000	          0.45347648	          0.00000000	          0.00000000	          0.00000000	          0.00000000	
          3.59000000	         52.55497282	        676.70951671	         40.28532265	         -0.26225728	          0.00000000	         -0.05093791	          0.00000000	          0.00000000	          0.00000000	          0.00000000	          0.00000000	          0.00000000	          0.00000000	          0.47624293	          0.00000000	          0.00000000	          0.00000000	          0.00000000	
          3.59100000	         52.90855308	        678.14183848	         40.44858360	         -0.26183076	          0.00000000	         -0.05101408	          0.00000000	          0.00000000	          0.00000000	          0.00000000	          0.00000000	          0.00000000	          0.00000000	          0.48384842	          0.00000000	          0.00000000	          0.00000000	          0.00000000	
          3.59200000	         53.28046856	        679.60914576	         40.60688902	         -0.26140349	          0.00000000	         -0.05108058	          0.00000000	          0.00000000	          0.00000000	          0.00000000	          0.00000000	          0.00000000	          0.00000000	          0.48362393	          0.00000000	          0.00000000	          0.00000000	          0.00000000	
          3.59300000	         53.66928573	        681.13875976	         40.77473072	         -0.26095079	          0.00000000	         -0.05112832	          0.00000000	          0.00000000	          0.00000000	          0.00000000	          0.00000000	          0.00000000	          0.00000000	          0.48532008	          0.00000000	          0.00000000	          0.00000000	          0.00000000	
          3.59400000	         54.06375914	        682.73207459	         40.96395992	         -0.26047169	          0.00000000	         -0.05116303	          0.00000000	          0.00000000	          0.00000000	          0.00000000	          0.00000000	          0.00000000	          0.00000000	          0.49607944	          0.00000000	          0.00000000	          0.00000000	          0.00000000	
          3.59500000	         54.45231969	        684.37179632	         41.17242701	         -0.25998778	          0.00000000	         -0.05120381	          0.00000000	          0.00000000	          0.00000000	          0.00000000	          0.00000000	          0.00000000	          0.00000000	          0.51756832	          0.00000000	          0.00000000	          0.00000000	          0.00000000	
